# Blender v3.5.0 OBJ File: 'battleField.blend'
# www.blender.org
mtllib battleField.mtl
o 立方体
v -312.682709 -1.000000 519.768433
v -312.682709 248.963562 519.768433
v -550.941650 -42.398254 -519.768433
v -363.834656 198.934769 -519.768433
v 122.886421 -1.000000 519.768433
v 291.601624 86.599426 519.768433
v 393.737061 -42.398254 -519.768433
v 393.113831 50.263962 -519.768433
v 0.000000 -1.000000 -519.768433
v 0.000000 32.704727 -519.768433
v 0.000000 -1.000000 519.768433
v 0.000000 32.704727 519.768433
v 61.443211 32.704727 -519.768433
v 61.443211 -1.000000 519.768433
v 61.443211 -38.691505 -519.768433
v 61.443211 32.704727 519.768433
v -61.443211 -38.691505 -519.768433
v -61.443211 32.704727 519.768433
v -61.443211 32.704727 -519.768433
v -61.443211 -1.000000 519.768433
v 92.164818 32.704727 -519.768433
v 92.164818 -1.000000 519.768433
v 92.164818 -1.000000 -519.768433
v 92.164818 32.704727 519.768433
v -92.164818 -10.041162 -519.768433
v -92.164818 32.704727 519.768433
v -92.164818 32.704727 -519.768433
v -92.164818 -1.000000 519.768433
v -30.721605 30.421227 -519.768433
v -30.721605 -1.000000 519.768433
v -30.721605 -1.000000 -519.768433
v -30.721605 32.704727 519.768433
v 30.721605 -1.000000 -519.768433
v 30.721605 32.704727 519.768433
v 30.721605 30.421227 -519.768433
v 30.721605 -1.000000 519.768433
v -634.805359 -42.398254 0.000000
v -447.698395 198.934769 0.000000
v 393.737061 -42.398254 0.000000
v 393.113831 50.263962 0.000000
v 0.000000 32.704727 0.000000
v 0.000000 -1.000000 0.000000
v 61.443211 32.704727 0.000000
v 61.443211 -1.000000 0.000000
v -61.443211 -6.986776 0.000000
v -61.443211 32.704727 0.000000
v 92.164818 32.704727 0.000000
v 92.164818 -1.000000 0.000000
v -92.164818 -10.041162 0.000000
v -92.164818 32.704727 0.000000
v -30.721605 30.421227 0.000000
v -30.721605 -1.000000 0.000000
v 30.721605 -1.000000 0.000000
v 30.721605 30.421227 0.000000
v 46.082409 30.421227 -519.768433
v 46.082409 -1.000000 519.768433
v 46.082409 -1.000000 -519.768433
v 46.082409 32.704727 519.768433
v 46.082409 30.421227 0.000000
v 46.082409 -1.000000 0.000000
v 76.804016 -1.000000 -519.768433
v 76.804016 32.704727 519.768433
v 76.804016 32.704727 -519.768433
v 76.804016 -1.000000 519.768433
v 76.804016 -1.000000 0.000000
v 76.804016 32.704727 0.000000
v 123.148102 26.995411 -519.768433
v 107.525620 -1.000000 519.768433
v 107.525620 -1.000000 -519.768433
v 107.525620 43.043198 519.768433
v 123.148102 26.995411 0.000000
v 107.525620 -1.000000 0.000000
v 15.360803 -1.000000 -519.768433
v 15.360803 32.704727 519.768433
v 15.360803 32.704727 -519.768433
v 15.360803 -1.000000 519.768433
v 15.360803 -1.000000 0.000000
v 15.360803 32.704727 0.000000
v -15.360803 32.704727 -519.768433
v -15.360803 -1.000000 519.768433
v -15.360803 -1.000000 -519.768433
v -15.360803 32.704727 519.768433
v -15.360803 32.704727 0.000000
v -15.360803 -1.000000 0.000000
v -46.082409 -1.000000 -519.768433
v -46.082409 32.704727 519.768433
v -46.082409 30.421227 -519.768433
v -46.082409 -1.000000 519.768433
v -46.082409 -1.000000 0.000000
v -46.082409 30.421227 0.000000
v -76.804016 32.704727 -519.768433
v -76.804016 -1.000000 519.768433
v -76.804016 -47.732666 -519.768433
v -76.804016 32.704727 519.768433
v -76.804016 32.704727 0.000000
v -76.804016 -47.732666 0.000000
v -107.525620 -1.000000 -519.768433
v -107.525620 43.084400 519.768433
v -123.148102 26.995411 -519.768433
v -107.525620 -1.000000 519.768433
v -107.525620 -1.000000 0.000000
v -123.148102 26.995411 0.000000
v -477.600800 -248.277405 259.884216
v 393.113831 50.263962 259.884216
v 0.000000 32.704727 259.884216
v 0.000000 8.723734 259.884216
v 61.443211 32.704727 259.884216
v 61.443211 -1.000000 259.884216
v -61.443211 -6.986776 259.884216
v -61.443211 32.704727 259.884216
v 92.164818 32.704727 259.884216
v 92.164818 -1.000000 259.884216
v -92.164818 -1.000000 259.884216
v -92.164818 32.704727 259.884216
v -30.721605 30.421227 259.884216
v -30.721605 -1.000000 259.884216
v 30.721605 -1.000000 259.884216
v 30.721605 30.421227 259.884216
v -290.493835 198.934769 259.884216
v 393.737061 -248.277405 259.884216
v 46.082409 30.421227 259.884216
v 46.082409 -1.000000 259.884216
v 76.804016 -1.000000 259.884216
v 76.804016 32.704727 259.884216
v 123.148102 26.995411 259.884216
v 107.525620 -1.000000 259.884216
v 15.360803 -1.000000 259.884216
v 15.360803 32.704727 259.884216
v -15.360803 32.704727 259.884216
v -15.360803 8.723734 259.884216
v -46.082409 -1.000000 259.884216
v -46.082409 30.421227 259.884216
v -76.804016 32.704727 259.884216
v -76.804016 -6.986776 259.884216
v -107.525620 -1.000000 259.884216
v -123.148102 26.995411 259.884216
v -312.682709 -1.000000 389.826324
v 291.601624 86.599426 389.826324
v 0.000000 32.704727 389.826324
v 0.000000 8.723734 389.826324
v 61.443211 32.704727 389.826324
v 61.443211 -1.000000 389.826324
v -61.443211 -1.000000 389.826324
v -61.443211 32.704727 389.826324
v 92.164818 32.704727 389.826324
v 92.164818 -1.000000 389.826324
v -92.164818 -1.000000 389.826324
v -92.164818 32.704727 389.826324
v -30.721605 32.704727 389.826324
v -30.721605 -1.000000 389.826324
v 30.721605 -1.000000 389.826324
v 30.721605 32.704727 389.826324
v 46.082409 32.704727 389.826324
v 46.082409 -1.000000 389.826324
v 76.804016 -1.000000 389.826324
v 76.804016 32.704727 389.826324
v 107.525620 43.043198 389.826324
v 107.525620 -1.000000 389.826324
v 15.360803 -1.000000 389.826324
v 15.360803 32.704727 389.826324
v -15.360803 32.704727 389.826324
v -15.360803 8.723734 389.826324
v -46.082409 -1.000000 389.826324
v -46.082409 32.704727 389.826324
v -76.804016 32.704727 389.826324
v -76.804016 -1.000000 389.826324
v -107.525620 -1.000000 389.826324
v -107.525620 43.084400 389.826324
v -312.682709 248.963562 389.826324
v 122.886421 -1.000000 389.826324
v 181.584610 26.995411 -519.768433
v 115.206024 -1.000000 519.768433
v 181.584610 26.995411 0.000000
v 165.962128 -1.000000 -519.768433
v 115.206024 43.043198 519.768433
v 165.962128 -1.000000 0.000000
v 181.584610 26.995411 259.884216
v 165.962128 -1.000000 259.884216
v 115.206024 43.043198 389.826324
v 115.206024 -1.000000 389.826324
v -165.962128 -1.000000 -519.768433
v -115.206024 43.084400 519.768433
v -165.962128 -1.000000 0.000000
v -181.584610 26.995411 -519.768433
v -115.206024 -1.000000 519.768433
v -181.584610 26.995411 0.000000
v -165.962128 -1.000000 259.884216
v -181.584610 26.995411 259.884216
v -115.206024 -1.000000 389.826324
v -115.206024 43.084400 389.826324
v 363.895569 50.263962 -519.768433
v 119.046219 -1.000000 519.768433
v 363.895569 50.263962 0.000000
v 363.895569 50.263962 259.884216
v 287.761414 86.599426 389.826324
v 364.518799 -42.398254 -519.768433
v 287.761414 86.599426 519.768433
v 364.518799 -42.398254 0.000000
v 364.518799 -248.277405 259.884216
v 119.046219 -1.000000 389.826324
v -364.518799 -42.398254 -519.768433
v -119.046219 248.963562 519.768433
v -364.518799 -42.398254 0.000000
v -364.518799 -248.277405 259.884216
v -119.046219 -1.000000 389.826324
v -177.411850 198.934769 -519.768433
v -119.046219 -1.000000 519.768433
v -177.411850 198.934769 0.000000
v -177.411850 198.934769 259.884216
v -119.046219 248.963562 389.826324
vt 0.375000 0.125000
vt 0.625000 0.125000
vt 0.625000 0.250000
vt 0.375000 0.250000
vt 0.375000 0.496094
vt 0.625000 0.496094
vt 0.625000 0.500000
vt 0.375000 0.500000
vt 0.375000 0.718750
vt 0.625000 0.718750
vt 0.625000 0.750000
vt 0.375000 0.750000
vt 0.375000 0.996094
vt 0.625000 0.996094
vt 0.625000 1.000000
vt 0.375000 1.000000
vt 0.371094 0.718750
vt 0.371094 0.750000
vt 0.871094 0.718750
vt 0.875000 0.718750
vt 0.875000 0.750000
vt 0.871094 0.750000
vt 0.734375 0.718750
vt 0.750000 0.718750
vt 0.750000 0.750000
vt 0.734375 0.750000
vt 0.234375 0.718750
vt 0.250000 0.718750
vt 0.250000 0.750000
vt 0.234375 0.750000
vt 0.375000 0.859375
vt 0.625000 0.859375
vt 0.625000 0.875000
vt 0.375000 0.875000
vt 0.375000 0.359375
vt 0.625000 0.359375
vt 0.625000 0.375000
vt 0.375000 0.375000
vt 0.375000 0.796875
vt 0.625000 0.796875
vt 0.625000 0.812500
vt 0.375000 0.812500
vt 0.671875 0.718750
vt 0.687500 0.718750
vt 0.687500 0.750000
vt 0.671875 0.750000
vt 0.296875 0.718750
vt 0.312500 0.718750
vt 0.312500 0.750000
vt 0.296875 0.750000
vt 0.375000 0.421875
vt 0.625000 0.421875
vt 0.625000 0.437500
vt 0.375000 0.437500
vt 0.375000 0.296875
vt 0.625000 0.296875
vt 0.625000 0.312500
vt 0.375000 0.312500
vt 0.171875 0.718750
vt 0.187500 0.718750
vt 0.187500 0.750000
vt 0.171875 0.750000
vt 0.796875 0.718750
vt 0.812500 0.718750
vt 0.812500 0.750000
vt 0.796875 0.750000
vt 0.375000 0.921875
vt 0.625000 0.921875
vt 0.625000 0.937500
vt 0.375000 0.937500
vt 0.640625 0.718750
vt 0.656250 0.718750
vt 0.656250 0.750000
vt 0.640625 0.750000
vt 0.375000 0.765625
vt 0.625000 0.765625
vt 0.625000 0.781250
vt 0.375000 0.781250
vt 0.328125 0.718750
vt 0.343750 0.718750
vt 0.343750 0.750000
vt 0.328125 0.750000
vt 0.375000 0.453125
vt 0.625000 0.453125
vt 0.625000 0.468750
vt 0.375000 0.468750
vt 0.140625 0.718750
vt 0.156250 0.718750
vt 0.156250 0.750000
vt 0.140625 0.750000
vt 0.375000 0.265625
vt 0.625000 0.265625
vt 0.625000 0.281250
vt 0.375000 0.281250
vt 0.828125 0.718750
vt 0.843750 0.718750
vt 0.843750 0.750000
vt 0.828125 0.750000
vt 0.375000 0.953125
vt 0.625000 0.953125
vt 0.625000 0.968750
vt 0.375000 0.968750
vt 0.375000 0.890625
vt 0.625000 0.890625
vt 0.625000 0.906250
vt 0.375000 0.906250
vt 0.765625 0.718750
vt 0.781250 0.718750
vt 0.781250 0.750000
vt 0.765625 0.750000
vt 0.375000 0.328125
vt 0.625000 0.328125
vt 0.625000 0.343750
vt 0.375000 0.343750
vt 0.203125 0.718750
vt 0.218750 0.718750
vt 0.218750 0.750000
vt 0.203125 0.750000
vt 0.375000 0.390625
vt 0.625000 0.390625
vt 0.625000 0.406250
vt 0.375000 0.406250
vt 0.265625 0.718750
vt 0.281250 0.718750
vt 0.281250 0.750000
vt 0.265625 0.750000
vt 0.375000 0.828125
vt 0.625000 0.828125
vt 0.625000 0.843750
vt 0.375000 0.843750
vt 0.703125 0.718750
vt 0.718750 0.718750
vt 0.718750 0.750000
vt 0.703125 0.750000
vt 0.703125 0.500000
vt 0.718750 0.500000
vt 0.718750 0.625000
vt 0.703125 0.625000
vt 0.265625 0.500000
vt 0.281250 0.500000
vt 0.281250 0.625000
vt 0.265625 0.625000
vt 0.203125 0.500000
vt 0.218750 0.500000
vt 0.218750 0.625000
vt 0.203125 0.625000
vt 0.765625 0.500000
vt 0.781250 0.500000
vt 0.781250 0.625000
vt 0.765625 0.625000
vt 0.828125 0.500000
vt 0.843750 0.500000
vt 0.843750 0.625000
vt 0.828125 0.625000
vt 0.140625 0.500000
vt 0.156250 0.500000
vt 0.156250 0.625000
vt 0.140625 0.625000
vt 0.328125 0.500000
vt 0.343750 0.500000
vt 0.343750 0.625000
vt 0.328125 0.625000
vt 0.640625 0.500000
vt 0.656250 0.500000
vt 0.656250 0.625000
vt 0.640625 0.625000
vt 0.796875 0.500000
vt 0.812500 0.500000
vt 0.812500 0.625000
vt 0.796875 0.625000
vt 0.171875 0.500000
vt 0.187500 0.500000
vt 0.187500 0.625000
vt 0.171875 0.625000
vt 0.296875 0.500000
vt 0.312500 0.500000
vt 0.312500 0.625000
vt 0.296875 0.625000
vt 0.671875 0.500000
vt 0.687500 0.500000
vt 0.687500 0.625000
vt 0.671875 0.625000
vt 0.234375 0.500000
vt 0.250000 0.500000
vt 0.250000 0.625000
vt 0.234375 0.625000
vt 0.734375 0.500000
vt 0.750000 0.500000
vt 0.750000 0.625000
vt 0.734375 0.625000
vt 0.871094 0.500000
vt 0.875000 0.500000
vt 0.875000 0.625000
vt 0.871094 0.625000
vt 0.371094 0.500000
vt 0.375000 0.625000
vt 0.371094 0.625000
vt 0.625000 0.625000
vt 0.375000 0.062500
vt 0.625000 0.062500
vt 0.359375 0.500000
vt 0.359375 0.625000
vt 0.632812 0.500000
vt 0.632812 0.625000
vt 0.375000 0.757812
vt 0.625000 0.757812
vt 0.632813 0.718750
vt 0.632812 0.750000
vt 0.359375 0.718750
vt 0.359375 0.750000
vt 0.625000 0.484375
vt 0.375000 0.484375
vt 0.859375 0.500000
vt 0.859375 0.625000
vt 0.132812 0.500000
vt 0.132812 0.625000
vt 0.375000 0.257812
vt 0.625000 0.257812
vt 0.132812 0.718750
vt 0.132812 0.750000
vt 0.859375 0.718750
vt 0.859375 0.750000
vt 0.625000 0.984375
vt 0.375000 0.984375
vt 0.859375 0.687500
vt 0.843750 0.687500
vt 0.140625 0.687500
vt 0.132812 0.687500
vt 0.171875 0.687500
vt 0.156250 0.687500
vt 0.828125 0.687500
vt 0.812500 0.687500
vt 0.796875 0.687500
vt 0.781250 0.687500
vt 0.203125 0.687500
vt 0.187500 0.687500
vt 0.234375 0.687500
vt 0.218750 0.687500
vt 0.765625 0.687500
vt 0.750000 0.687500
vt 0.734375 0.687500
vt 0.718750 0.687500
vt 0.265625 0.687500
vt 0.250000 0.687500
vt 0.359375 0.687500
vt 0.343750 0.687500
vt 0.640625 0.687500
vt 0.632812 0.687500
vt 0.671875 0.687500
vt 0.656250 0.687500
vt 0.328125 0.687500
vt 0.312500 0.687500
vt 0.296875 0.687500
vt 0.281250 0.687500
vt 0.703125 0.687500
vt 0.687500 0.687500
vt 0.375000 0.031250
vt 0.625000 0.031250
vt 0.875000 0.687500
vt 0.871094 0.687500
vt 0.375000 0.687500
vt 0.371094 0.687500
vt 0.625000 0.687500
vt 0.375000 0.000000
vt 0.625000 0.000000
vt 0.367188 0.687500
vt 0.367188 0.718750
vt 0.628906 0.687500
vt 0.628906 0.718750
vt 0.367188 0.625000
vt 0.628906 0.625000
vt 0.628906 0.750000
vt 0.375000 0.753906
vt 0.625000 0.753906
vt 0.628906 0.500000
vt 0.367188 0.500000
vt 0.367188 0.750000
vt 0.625000 0.492188
vt 0.375000 0.492188
vt 0.867188 0.687500
vt 0.867188 0.718750
vt 0.128906 0.687500
vt 0.128906 0.718750
vt 0.867188 0.625000
vt 0.128906 0.625000
vt 0.128906 0.750000
vt 0.375000 0.253906
vt 0.625000 0.253906
vt 0.128906 0.500000
vt 0.867188 0.500000
vt 0.867188 0.750000
vt 0.625000 0.992188
vt 0.375000 0.992188
vt 0.125000 0.500000
vt 0.125000 0.625000
vt 0.125000 0.718750
vt 0.125000 0.750000
vt 0.125000 0.687500
vn -0.7840 0.6078 -0.1265
vn 0.0000 0.0000 -1.0000
vn 0.4608 -0.8875 0.0000
vn 0.0000 0.0000 1.0000
vn 0.0000 -1.0000 0.0000
vn 0.0000 1.0000 0.0000
vn 0.0000 -0.9972 -0.0746
vn -0.5584 0.8296 0.0000
vn -0.1470 0.9891 0.0000
vn -0.5072 -0.8618 0.0000
vn 0.1812 0.9834 0.0000
vn 0.1470 0.9891 0.0000
vn 0.8509 -0.5251 0.0160
vn -0.7749 -0.6316 0.0229
vn 1.0000 0.0067 0.0000
vn -0.7128 0.3874 0.5846
vn 0.7749 -0.6316 0.0229
vn -0.3016 -0.9528 -0.0356
vn 0.3016 -0.9528 -0.0356
vn 0.8178 -0.5752 0.0175
vn -0.9260 -0.3774 0.0000
vn -0.1812 0.9834 0.0000
vn 0.5599 0.8286 0.0000
vn -0.8167 -0.5744 0.0550
vn 0.3631 -0.9317 0.0000
vn 0.3017 -0.9532 0.0178
vn -0.3017 -0.9532 0.0178
vn -0.9404 0.2524 0.2278
vn -0.2823 -0.9592 0.0167
vn 0.7976 -0.6014 0.0471
vn 0.0000 -0.9993 0.0374
vn 0.0000 -0.7838 -0.6210
vn 1.0000 0.0032 0.0013
vn -1.0000 0.0000 0.0000
vn 0.1000 0.9927 -0.0675
vn -0.1912 -0.9813 0.0226
vn 0.0000 0.9998 -0.0176
vn 0.1912 -0.9813 0.0226
vn 0.5349 -0.8449 0.0000
vn 0.0741 0.9972 -0.0088
vn -0.5349 -0.8449 0.0000
vn 0.0000 0.9925 -0.1226
vn -0.0741 0.9972 -0.0088
vn -0.0992 0.9928 -0.0673
vn 0.0000 -0.9989 0.0460
vn 0.0000 0.9332 -0.3593
vn 0.0000 -0.4652 0.8852
vn 0.4550 -0.1981 0.8682
vn -0.1773 0.9414 -0.2870
vn -0.1266 0.9920 0.0000
vn -0.2447 0.9696 0.0000
vn 0.0000 0.9924 -0.1229
vn 0.7453 -0.6100 -0.2691
vn 0.5600 -0.7703 -0.3051
vn 0.2041 -0.9789 0.0000
vn 0.0000 0.9631 -0.2693
vn -0.7453 -0.6100 -0.2691
vn -0.5600 -0.7703 -0.3051
vn -0.2041 -0.9789 0.0000
vn 0.9016 -0.0008 -0.4326
vn 0.9997 -0.0243 0.0000
vn 0.9998 0.0186 0.0000
usemtl マテリアル
s off
f 37/1/1 38/2/1 4/3/1 3/4/1
f 196/5/2 191/6/2 8/7/2 7/8/2
f 170/9/3 138/10/3 6/11/3 5/12/3
f 207/13/4 202/14/4 2/15/4 1/16/4
f 200/17/5 170/9/5 5/12/5 192/18/5
f 210/19/6 169/20/6 2/21/6 202/22/6
f 160/23/6 139/24/6 12/25/6 74/26/6
f 162/27/7 140/28/7 11/29/7 80/30/7
f 76/31/4 74/32/4 12/33/4 11/34/4
f 81/35/2 79/36/2 10/37/2 9/38/2
f 64/39/4 62/40/4 16/41/4 14/42/4
f 156/43/6 141/44/6 16/45/6 62/46/6
f 154/47/5 142/48/5 14/49/5 56/50/5
f 57/51/2 55/52/2 13/53/2 15/54/2
f 93/55/2 91/56/2 19/57/2 17/58/2
f 166/59/5 143/60/5 20/61/5 92/62/5
f 164/63/6 144/64/6 18/65/6 86/66/6
f 88/67/4 86/68/4 18/69/4 20/70/4
f 157/71/8 145/72/8 24/73/8 70/74/8
f 68/75/4 70/76/4 24/77/4 22/78/4
f 155/79/5 146/80/5 22/81/5 64/82/5
f 61/83/2 63/84/2 21/85/2 23/86/2
f 167/87/5 147/88/5 28/89/5 100/90/5
f 97/91/2 99/92/2 27/93/2 25/94/2
f 165/95/6 148/96/6 26/97/6 94/98/6
f 92/99/4 94/100/4 26/101/4 28/102/4
f 80/103/4 82/104/4 32/105/4 30/106/4
f 161/107/6 149/108/6 32/109/6 82/110/6
f 85/111/2 87/112/2 29/113/2 31/114/2
f 163/115/5 150/116/5 30/117/5 88/118/5
f 73/119/2 75/120/2 35/121/2 33/122/2
f 159/123/5 151/124/5 36/125/5 76/126/5
f 56/127/4 58/128/4 34/129/4 36/130/4
f 153/131/6 152/132/6 34/133/6 58/134/6
f 55/135/6 35/136/6 54/137/6 59/138/6
f 73/139/5 33/140/5 53/141/5 77/142/5
f 85/143/5 31/144/5 52/145/5 89/146/5
f 79/147/9 29/148/9 51/149/9 83/150/9
f 91/151/6 27/152/6 50/153/6 95/154/6
f 97/155/10 25/156/10 49/157/10 101/158/10
f 61/159/5 23/160/5 48/161/5 65/162/5
f 67/163/11 21/164/11 47/165/11 71/166/11
f 87/167/12 19/168/12 46/169/12 90/170/12
f 93/171/13 17/172/13 45/173/13 96/174/13
f 57/175/14 15/176/14 44/177/14 60/178/14
f 63/179/6 13/180/6 43/181/6 66/182/6
f 81/183/5 9/184/5 42/185/5 84/186/5
f 75/187/6 10/188/6 41/189/6 78/190/6
f 206/191/6 4/192/6 38/193/6 208/194/6
f 196/195/5 7/8/5 39/196/5 198/197/5
f 7/8/15 8/7/15 40/198/15 39/196/15
f 103/199/16 119/200/16 38/2/16 37/1/16
f 33/140/5 57/175/5 60/178/5 53/141/5
f 13/180/9 55/135/9 59/138/9 43/181/9
f 141/44/6 153/131/6 58/134/6 16/45/6
f 14/42/4 16/41/4 58/128/4 56/127/4
f 33/122/2 35/121/2 55/52/2 57/51/2
f 151/124/5 154/47/5 56/50/5 36/125/5
f 21/164/6 63/179/6 66/182/6 47/165/6
f 15/176/17 61/159/17 65/162/17 44/177/17
f 15/54/2 13/53/2 63/84/2 61/83/2
f 142/48/5 155/79/5 64/82/5 14/49/5
f 145/72/6 156/43/6 62/46/6 24/73/6
f 22/78/4 24/77/4 62/40/4 64/39/4
f 23/160/5 69/201/5 72/202/5 48/161/5
f 171/203/6 67/163/6 71/166/6 173/204/6
f 172/205/4 175/206/4 70/76/4 68/75/4
f 179/207/6 157/71/6 70/74/6 175/208/6
f 146/80/5 158/209/5 68/210/5 22/81/5
f 23/86/2 21/85/2 67/211/2 69/212/2
f 35/136/12 75/187/12 78/190/12 54/137/12
f 9/184/5 73/139/5 77/142/5 42/185/5
f 140/28/18 159/123/18 76/126/18 11/29/18
f 9/38/2 10/37/2 75/120/2 73/119/2
f 36/130/4 34/129/4 74/32/4 76/31/4
f 152/132/6 160/23/6 74/26/6 34/133/6
f 31/144/5 81/183/5 84/186/5 52/145/5
f 10/188/6 79/147/6 83/150/6 41/189/6
f 139/24/6 161/107/6 82/110/6 12/25/6
f 11/34/4 12/33/4 82/104/4 80/103/4
f 31/114/2 29/113/2 79/36/2 81/35/2
f 150/116/19 162/27/19 80/30/19 30/117/19
f 29/148/6 87/167/6 90/170/6 51/149/6
f 17/172/20 85/143/20 89/146/20 45/173/20
f 143/60/5 163/115/5 88/118/5 20/61/5
f 17/58/2 19/57/2 87/112/2 85/111/2
f 30/106/4 32/105/4 86/68/4 88/67/4
f 149/108/6 164/63/6 86/66/6 32/109/6
f 25/156/21 93/171/21 96/174/21 49/157/21
f 19/168/6 91/151/6 95/154/6 46/169/6
f 20/70/4 18/69/4 94/100/4 92/99/4
f 144/64/6 165/95/6 94/98/6 18/65/6
f 147/88/5 166/59/5 92/62/5 28/89/5
f 25/94/2 27/93/2 91/56/2 93/55/2
f 27/152/22 99/213/22 102/214/22 50/153/22
f 181/215/5 97/155/5 101/158/5 183/216/5
f 181/217/2 184/218/2 99/92/2 97/91/2
f 189/219/5 167/87/5 100/90/5 185/220/5
f 148/96/23 168/221/23 98/222/23 26/97/23
f 28/102/4 26/101/4 98/223/4 100/224/4
f 50/153/22 102/214/22 136/225/22 114/226/22
f 183/216/5 101/158/5 135/227/5 187/228/5
f 49/157/24 96/174/24 134/229/24 113/230/24
f 46/169/6 95/154/6 133/231/6 110/232/6
f 51/149/6 90/170/6 132/233/6 115/234/6
f 45/173/25 89/146/25 131/235/25 109/236/25
f 52/145/26 84/186/26 130/237/26 116/238/26
f 41/189/6 83/150/6 129/239/6 105/240/6
f 54/137/12 78/190/12 128/241/12 118/242/12
f 42/185/27 77/142/27 127/243/27 106/244/27
f 48/161/5 72/202/5 126/245/5 112/246/5
f 173/204/6 71/166/6 125/247/6 177/248/6
f 47/165/6 66/182/6 124/249/6 111/250/6
f 44/177/5 65/162/5 123/251/5 108/252/5
f 53/141/5 60/178/5 122/253/5 117/254/5
f 43/181/9 59/138/9 121/255/9 107/256/9
f 137/257/28 169/258/28 119/200/28 103/199/28
f 59/138/6 54/137/6 118/242/6 121/255/6
f 77/142/5 53/141/5 117/254/5 127/243/5
f 89/146/5 52/145/5 116/238/5 131/235/5
f 83/150/9 51/149/9 115/234/9 129/239/9
f 95/154/6 50/153/6 114/226/6 133/231/6
f 101/158/29 49/157/29 113/230/29 135/227/29
f 65/162/5 48/161/5 112/246/5 123/251/5
f 71/166/11 47/165/11 111/250/11 125/247/11
f 90/170/12 46/169/12 110/232/12 132/233/12
f 96/174/30 45/173/30 109/236/30 134/229/30
f 60/178/5 44/177/5 108/252/5 122/253/5
f 66/182/6 43/181/6 107/256/6 124/249/6
f 84/186/31 42/185/31 106/244/31 130/237/31
f 78/190/6 41/189/6 105/240/6 128/241/6
f 208/194/6 38/193/6 119/259/6 209/260/6
f 198/197/32 39/196/32 120/261/32 199/262/32
f 39/196/33 40/198/33 104/263/33 120/261/33
f 1/264/34 2/265/34 169/258/34 137/257/34
f 114/226/35 136/225/35 168/221/35 148/96/35
f 187/228/5 135/227/5 167/87/5 189/219/5
f 113/230/36 134/229/36 166/59/36 147/88/36
f 110/232/6 133/231/6 165/95/6 144/64/6
f 115/234/37 132/233/37 164/63/37 149/108/37
f 109/236/38 131/235/38 163/115/38 143/60/38
f 116/238/39 130/237/39 162/27/39 150/116/39
f 105/240/6 129/239/6 161/107/6 139/24/6
f 118/242/40 128/241/40 160/23/40 152/132/40
f 106/244/41 127/243/41 159/123/41 140/28/41
f 112/246/5 126/245/5 158/209/5 146/80/5
f 177/248/42 125/247/42 157/71/42 179/207/42
f 111/250/6 124/249/6 156/43/6 145/72/6
f 108/252/5 123/251/5 155/79/5 142/48/5
f 117/254/5 122/253/5 154/47/5 151/124/5
f 107/256/43 121/255/43 153/131/43 141/44/43
f 121/255/37 118/242/37 152/132/37 153/131/37
f 127/243/5 117/254/5 151/124/5 159/123/5
f 131/235/5 116/238/5 150/116/5 163/115/5
f 129/239/43 115/234/43 149/108/43 161/107/43
f 133/231/6 114/226/6 148/96/6 165/95/6
f 135/227/5 113/230/5 147/88/5 167/87/5
f 123/251/5 112/246/5 146/80/5 155/79/5
f 125/247/44 111/250/44 145/72/44 157/71/44
f 132/233/40 110/232/40 144/64/40 164/63/40
f 134/229/45 109/236/45 143/60/45 166/59/45
f 122/253/5 108/252/5 142/48/5 154/47/5
f 124/249/6 107/256/6 141/44/6 156/43/6
f 130/237/5 106/244/5 140/28/5 162/27/5
f 128/241/6 105/240/6 139/24/6 160/23/6
f 209/260/46 119/259/46 169/20/46 210/19/46
f 199/262/47 120/261/47 170/9/47 200/17/47
f 120/261/48 104/263/48 138/10/48 170/9/48
f 126/245/5 178/266/5 180/267/5 158/209/5
f 194/268/49 177/248/49 179/207/49 195/269/49
f 72/202/5 176/270/5 178/266/5 126/245/5
f 193/271/50 173/204/50 177/248/50 194/268/50
f 195/269/51 179/207/51 175/208/51 197/272/51
f 192/273/4 197/274/4 175/206/4 172/205/4
f 191/275/50 171/203/50 173/204/50 193/271/50
f 69/201/5 174/276/5 176/270/5 72/202/5
f 158/209/5 180/267/5 172/277/5 68/210/5
f 69/212/2 67/211/2 171/278/2 174/279/2
f 136/225/52 188/280/52 190/281/52 168/221/52
f 204/282/53 187/228/53 189/219/53 205/283/53
f 102/214/6 186/284/6 188/280/6 136/225/6
f 203/285/54 183/216/54 187/228/54 204/282/54
f 205/283/5 189/219/5 185/220/5 207/286/5
f 201/287/2 206/288/2 184/218/2 181/217/2
f 201/289/55 181/215/55 183/216/55 203/285/55
f 99/213/6 184/290/6 186/284/6 102/214/6
f 168/221/6 190/281/6 182/291/6 98/222/6
f 100/224/4 98/223/4 182/292/4 185/293/4
f 8/7/6 191/275/6 193/271/6 40/198/6
f 5/12/4 6/11/4 197/274/4 192/273/4
f 138/10/6 195/269/6 197/272/6 6/11/6
f 40/198/6 193/271/6 194/268/6 104/263/6
f 104/263/56 194/268/56 195/269/56 138/10/56
f 178/266/57 199/262/57 200/17/57 180/267/57
f 176/270/58 198/197/58 199/262/58 178/266/58
f 174/276/59 196/195/59 198/197/59 176/270/59
f 180/267/5 200/17/5 192/18/5 172/277/5
f 174/279/2 171/278/2 191/6/2 196/5/2
f 3/294/5 201/289/5 203/285/5 37/295/5
f 3/4/2 4/3/2 206/288/2 201/287/2
f 137/296/5 205/283/5 207/286/5 1/297/5
f 37/295/32 203/285/32 204/282/32 103/298/32
f 103/298/47 204/282/47 205/283/47 137/296/47
f 188/280/60 209/260/60 210/19/60 190/281/60
f 186/284/61 208/194/61 209/260/61 188/280/61
f 184/290/61 206/191/61 208/194/61 186/284/61
f 190/281/62 210/19/62 202/22/62 182/291/62
f 185/293/4 182/292/4 202/14/4 207/13/4
